<svg width="50" height="50" viewBox="0 0 50 50" fill="none" xmlns="http://www.w3.org/2000/svg">
<path d="M46.875 25C46.875 23.5958 46.7425 22.2225 46.4897 20.8918C45.1216 23.7442 42.4263 25.9551 38.988 26.4556C38.2597 33.5382 32.2751 39.0626 25 39.0626C21.7343 39.0626 18.7286 37.9493 16.3416 36.0817C13.8171 39.9657 15.8876 45.4677 20.6866 46.4496C22.0811 46.7285 23.5235 46.875 25 46.875C37.0812 46.875 46.875 37.0812 46.875 25ZM25 17.1874C25.5712 17.1874 26.0969 17.4991 26.3709 18.0002L28.361 21.6389L31.9997 23.6291C32.5009 23.9031 32.8126 24.4288 32.8126 25C32.8126 25.5712 32.5009 26.0969 31.9997 26.3709L28.361 28.361L26.3709 31.9997C26.0969 32.5009 25.5712 32.8126 25 32.8126C24.4288 32.8126 23.9031 32.5009 23.6291 31.9997L21.6389 28.361L18.0002 26.3709C17.4991 26.0969 17.1874 25.5712 17.1874 25C17.1874 24.4288 17.4991 23.9031 18.0002 23.6291L21.6389 21.6389L23.6291 18.0002C23.9031 17.4991 24.4288 17.1874 25 17.1874ZM24.1612 23.54C24.0178 23.8022 23.8022 24.0178 23.54 24.1612L22.0063 25L23.54 25.8388C23.8022 25.9822 24.0178 26.1977 24.1612 26.4599L25 27.9935L25.8388 26.4599C25.9821 26.1977 26.1977 25.9821 26.4599 25.8388L27.9935 25L26.4599 24.1612C26.1977 24.0178 25.9822 23.8022 25.8388 23.54L25 22.0063L24.1612 23.54ZM37.2914 6.90237C38.3399 9.88632 37.9969 13.3545 35.9198 16.1389C37.5454 18.1396 38.6319 20.5956 38.9588 23.2861C43.4411 22.335 45.8636 17.0859 43.3031 13.016C41.7207 10.6043 39.6746 8.52411 37.2914 6.90237ZM3.12502 25C3.12503 32.5243 6.92402 39.1612 12.7085 43.0975C11.66 40.1136 12.003 36.6454 14.0801 33.861C12.1152 31.4426 10.9374 28.3589 10.9374 25C10.9374 17.2334 17.2334 10.9374 25 10.9374C28.2657 10.9374 31.2712 12.0507 33.6582 13.9182C36.1824 10.0348 34.1131 4.53381 29.3156 3.55065C27.9204 3.27149 26.4773 3.12502 25 3.12502C12.9188 3.12502 3.12502 12.9188 3.12502 25ZM14.0624 25C14.0624 31.0407 18.9593 35.9376 25 35.9376C31.0407 35.9376 35.9376 31.0407 35.9376 25C35.9376 18.9593 31.0407 14.0624 25 14.0624C18.9593 14.0624 14.0624 18.9593 14.0624 25ZM50 25C50 38.8071 38.8071 50 25 50C11.1929 50 2.41606e-06 38.8071 0 25C0 11.1929 11.1929 0 25 0C33.6368 1.51168e-06 41.2505 4.3797 45.7417 11.0392C45.7574 11.0604 45.7728 11.082 45.7876 11.1041C45.8369 11.1778 45.8851 11.2517 45.9322 11.3259C48.5043 15.2553 50 19.953 50 25Z" fill="#D9D9D9"/>
</svg>
