<svg width="50" height="49" viewBox="0 0 50 49" fill="none" xmlns="http://www.w3.org/2000/svg">
<g opacity="0.5">
<path d="M49.3928 10.5343C49.0499 9.82811 48.5703 9.19692 47.9819 8.67728C47.3934 8.15763 46.7078 7.75984 45.9646 7.50693L24.9372 0.330085C24.1954 0.0714485 23.4096 -0.0369845 22.6255 0.0111036C21.8414 0.0591917 21.0747 0.262839 20.3701 0.610181C19.6664 0.952515 19.038 1.43173 18.5216 2.01979C18.0052 2.60786 17.6113 3.29297 17.3629 4.03507L17.128 4.72274L16.4337 4.48625C14.9374 3.97687 13.3002 4.08154 11.881 4.77731C10.4618 5.47308 9.3764 6.70318 8.86268 8.19794L0.318902 33.1752C-0.19091 34.6719 -0.0862694 36.3096 0.60987 37.7293C1.30601 39.1489 2.53681 40.2345 4.03228 40.7478L25.0613 47.9414C25.6936 48.1578 26.3461 48.2652 26.9952 48.2652C27.8925 48.2652 28.7848 48.0589 29.6167 47.653C30.3212 47.3101 30.9507 46.8309 31.4686 46.243C31.9866 45.6551 32.3827 44.9702 32.634 44.2281L32.8705 43.5371L33.5581 43.7702C34.2945 44.0263 35.0742 44.1344 35.8525 44.0883C36.6308 44.0423 37.3923 43.843 38.0934 43.5018C38.8023 43.1586 39.4362 42.6781 39.9581 42.0882C40.4801 41.4983 40.8798 40.8107 41.1342 40.0652L49.6696 15.0964C49.928 14.3555 50.0366 13.5707 49.9891 12.7876C49.9416 12.0044 49.7389 11.2385 49.3928 10.5343ZM26.0375 45.0835L5.00842 37.8898C4.26999 37.6366 3.66222 37.1007 3.31852 36.3998C2.97482 35.6989 2.92328 34.8902 3.17521 34.1513L11.719 9.17577C11.9723 8.43108 12.5023 7.83063 13.21 7.48512C13.5568 7.31346 13.9342 7.21245 14.3203 7.18797C14.7064 7.1635 15.0936 7.21605 15.4592 7.34256L36.4882 14.5362C37.2267 14.7894 37.8344 15.3253 38.1781 16.0262C38.5218 16.7272 38.5734 17.5358 38.3215 18.2747L29.7777 43.2503C29.6527 43.6163 29.4567 43.9542 29.201 44.2445C28.9453 44.5348 28.6349 44.7719 28.2876 44.9421C27.9402 45.1124 27.5627 45.2125 27.1766 45.2368C26.7905 45.261 26.4034 45.2089 26.0375 45.0835ZM46.8149 14.1152L38.2795 39.0857C38.1534 39.4545 37.9556 39.7946 37.6974 40.0865C37.4391 40.3784 37.1257 40.6163 36.7751 40.7864C36.4293 40.9552 36.0534 41.0535 35.6693 41.0757C35.2852 41.0979 34.9005 41.0434 34.5376 40.9156L33.8483 40.6824L41.1778 19.2525C41.4335 18.5119 41.5397 17.7279 41.4902 16.9459C41.4406 16.164 41.2364 15.3996 40.8893 14.6972C40.5465 13.9926 40.0672 13.3632 39.4793 12.8452C38.8914 12.3273 38.2065 11.9312 37.4644 11.6799L19.9844 5.70056L20.2208 5.00786C20.4708 4.26485 20.9974 3.66608 21.7002 3.32225C22.0483 3.15077 22.4271 3.05043 22.8144 3.0271C23.2018 3.00377 23.5899 3.05793 23.956 3.1864L44.9834 10.3616C45.3506 10.487 45.6894 10.6838 45.9804 10.9406C46.2714 11.1974 46.5088 11.5091 46.679 11.8579C46.8491 12.2067 46.9488 12.5856 46.9721 12.973C46.9954 13.3603 46.942 13.7485 46.8149 14.1152Z" fill="#D9D9D9"/>
<path d="M27.812 20.9012C26.4099 19.853 24.6018 19.5611 22.8592 20.0425C21.7774 18.5934 20.1706 17.7195 18.4212 17.6893H18.3256C16.1469 17.6893 14.2131 18.9909 13.1363 21.1863C11.2612 25.0188 13.6412 29.6362 16.8296 32.5143C17.2567 32.8969 17.7564 33.1896 18.2989 33.3752C18.8415 33.5608 19.4158 33.6353 19.9878 33.5944C24.2731 33.2758 28.981 31.082 29.8465 26.9006C30.3463 24.472 29.5848 22.2296 27.812 20.9012ZM26.8879 26.2885C26.3461 28.915 22.8139 30.3557 19.763 30.5838C19.4298 30.6033 19.1022 30.4913 18.8506 30.2719C16.5796 28.2223 14.671 24.9198 15.8484 22.5147C16.417 21.349 17.3025 20.653 18.3676 20.7083C19.4108 20.7268 20.335 21.4094 20.8398 22.5365C20.9246 22.7253 21.0473 22.8945 21.2003 23.0339C21.3532 23.1732 21.5332 23.2796 21.7291 23.3464C21.9249 23.4133 22.1323 23.4392 22.3386 23.4225C22.5448 23.4058 22.7454 23.3468 22.9279 23.2493C24.0165 22.6673 25.1654 22.6958 26.004 23.3198C26.8275 23.937 27.1512 25.0188 26.8879 26.2885Z" fill="#D9D9D9"/>
</g>
<g opacity="0.5">
<path d="M49.3928 10.5343C49.0499 9.82811 48.5703 9.19692 47.9819 8.67728C47.3934 8.15763 46.7078 7.75984 45.9646 7.50693L24.9372 0.330085C24.1954 0.0714485 23.4096 -0.0369845 22.6255 0.0111036C21.8414 0.0591917 21.0747 0.262839 20.3701 0.610181C19.6664 0.952515 19.038 1.43173 18.5216 2.01979C18.0052 2.60786 17.6113 3.29297 17.3629 4.03507L17.128 4.72274L16.4337 4.48625C14.9374 3.97687 13.3002 4.08154 11.881 4.77731C10.4618 5.47308 9.3764 6.70318 8.86268 8.19794L0.318902 33.1752C-0.19091 34.6719 -0.0862694 36.3096 0.60987 37.7293C1.30601 39.1489 2.53681 40.2345 4.03228 40.7478L25.0613 47.9414C25.6936 48.1578 26.3461 48.2652 26.9952 48.2652C27.8925 48.2652 28.7848 48.0589 29.6167 47.653C30.3212 47.3101 30.9507 46.8309 31.4686 46.243C31.9866 45.6551 32.3827 44.9702 32.634 44.2281L32.8705 43.5371L33.5581 43.7702C34.2945 44.0263 35.0742 44.1344 35.8525 44.0883C36.6308 44.0423 37.3923 43.843 38.0934 43.5018C38.8023 43.1586 39.4362 42.6781 39.9581 42.0882C40.4801 41.4983 40.8798 40.8107 41.1342 40.0652L49.6696 15.0964C49.928 14.3555 50.0366 13.5707 49.9891 12.7876C49.9416 12.0044 49.7389 11.2385 49.3928 10.5343ZM26.0375 45.0835L5.00842 37.8898C4.26999 37.6366 3.66222 37.1007 3.31852 36.3998C2.97482 35.6989 2.92328 34.8902 3.17521 34.1513L11.719 9.17577C11.9723 8.43108 12.5023 7.83063 13.21 7.48512C13.5568 7.31346 13.9342 7.21245 14.3203 7.18797C14.7064 7.1635 15.0936 7.21605 15.4592 7.34256L36.4882 14.5362C37.2267 14.7894 37.8344 15.3253 38.1781 16.0262C38.5218 16.7272 38.5734 17.5358 38.3215 18.2747L29.7777 43.2503C29.6527 43.6163 29.4567 43.9542 29.201 44.2445C28.9453 44.5348 28.6349 44.7719 28.2876 44.9421C27.9402 45.1124 27.5627 45.2125 27.1766 45.2368C26.7905 45.261 26.4034 45.2089 26.0375 45.0835ZM46.8149 14.1152L38.2795 39.0857C38.1534 39.4545 37.9556 39.7946 37.6974 40.0865C37.4391 40.3784 37.1257 40.6163 36.7751 40.7864C36.4293 40.9552 36.0534 41.0535 35.6693 41.0757C35.2852 41.0979 34.9005 41.0434 34.5376 40.9156L33.8483 40.6824L41.1778 19.2525C41.4335 18.5119 41.5397 17.7279 41.4902 16.9459C41.4406 16.164 41.2364 15.3996 40.8893 14.6972C40.5465 13.9926 40.0672 13.3632 39.4793 12.8452C38.8914 12.3273 38.2065 11.9312 37.4644 11.6799L19.9844 5.70056L20.2208 5.00786C20.4708 4.26485 20.9974 3.66608 21.7002 3.32225C22.0483 3.15077 22.4271 3.05043 22.8144 3.0271C23.2018 3.00377 23.5899 3.05793 23.956 3.1864L44.9834 10.3616C45.3506 10.487 45.6894 10.6838 45.9804 10.9406C46.2714 11.1974 46.5088 11.5091 46.679 11.8579C46.8491 12.2067 46.9488 12.5856 46.9721 12.973C46.9954 13.3603 46.942 13.7485 46.8149 14.1152Z" fill="#D9D9D9"/>
<path d="M27.812 20.9012C26.4099 19.853 24.6018 19.5611 22.8592 20.0425C21.7774 18.5934 20.1706 17.7195 18.4212 17.6893H18.3256C16.1469 17.6893 14.2131 18.9909 13.1363 21.1863C11.2612 25.0188 13.6412 29.6362 16.8296 32.5143C17.2567 32.8969 17.7564 33.1896 18.2989 33.3752C18.8415 33.5608 19.4158 33.6353 19.9878 33.5944C24.2731 33.2758 28.981 31.082 29.8465 26.9006C30.3463 24.472 29.5848 22.2296 27.812 20.9012ZM26.8879 26.2885C26.3461 28.915 22.8139 30.3557 19.763 30.5838C19.4298 30.6033 19.1022 30.4913 18.8506 30.2719C16.5796 28.2223 14.671 24.9198 15.8484 22.5147C16.417 21.349 17.3025 20.653 18.3676 20.7083C19.4108 20.7268 20.335 21.4094 20.8398 22.5365C20.9246 22.7253 21.0473 22.8945 21.2003 23.0339C21.3532 23.1732 21.5332 23.2796 21.7291 23.3464C21.9249 23.4133 22.1323 23.4392 22.3386 23.4225C22.5448 23.4058 22.7454 23.3468 22.9279 23.2493C24.0165 22.6673 25.1654 22.6958 26.004 23.3198C26.8275 23.937 27.1512 25.0188 26.8879 26.2885Z" fill="#D9D9D9"/>
</g>
<g opacity="0.5">
<path d="M49.3928 10.5343C49.0499 9.82811 48.5703 9.19692 47.9819 8.67728C47.3934 8.15763 46.7078 7.75984 45.9646 7.50693L24.9372 0.330085C24.1954 0.0714485 23.4096 -0.0369845 22.6255 0.0111036C21.8414 0.0591917 21.0747 0.262839 20.3701 0.610181C19.6664 0.952515 19.038 1.43173 18.5216 2.01979C18.0052 2.60786 17.6113 3.29297 17.3629 4.03507L17.128 4.72274L16.4337 4.48625C14.9374 3.97687 13.3002 4.08154 11.881 4.77731C10.4618 5.47308 9.3764 6.70318 8.86268 8.19794L0.318902 33.1752C-0.19091 34.6719 -0.0862694 36.3096 0.60987 37.7293C1.30601 39.1489 2.53681 40.2345 4.03228 40.7478L25.0613 47.9414C25.6936 48.1578 26.3461 48.2652 26.9952 48.2652C27.8925 48.2652 28.7848 48.0589 29.6167 47.653C30.3212 47.3101 30.9507 46.8309 31.4686 46.243C31.9866 45.6551 32.3827 44.9702 32.634 44.2281L32.8705 43.5371L33.5581 43.7702C34.2945 44.0263 35.0742 44.1344 35.8525 44.0883C36.6308 44.0423 37.3923 43.843 38.0934 43.5018C38.8023 43.1586 39.4362 42.6781 39.9581 42.0882C40.4801 41.4983 40.8798 40.8107 41.1342 40.0652L49.6696 15.0964C49.928 14.3555 50.0366 13.5707 49.9891 12.7876C49.9416 12.0044 49.7389 11.2385 49.3928 10.5343ZM26.0375 45.0835L5.00842 37.8898C4.26999 37.6366 3.66222 37.1007 3.31852 36.3998C2.97482 35.6989 2.92328 34.8902 3.17521 34.1513L11.719 9.17577C11.9723 8.43108 12.5023 7.83063 13.21 7.48512C13.5568 7.31346 13.9342 7.21245 14.3203 7.18797C14.7064 7.1635 15.0936 7.21605 15.4592 7.34256L36.4882 14.5362C37.2267 14.7894 37.8344 15.3253 38.1781 16.0262C38.5218 16.7272 38.5734 17.5358 38.3215 18.2747L29.7777 43.2503C29.6527 43.6163 29.4567 43.9542 29.201 44.2445C28.9453 44.5348 28.6349 44.7719 28.2876 44.9421C27.9402 45.1124 27.5627 45.2125 27.1766 45.2368C26.7905 45.261 26.4034 45.2089 26.0375 45.0835ZM46.8149 14.1152L38.2795 39.0857C38.1534 39.4545 37.9556 39.7946 37.6974 40.0865C37.4391 40.3784 37.1257 40.6163 36.7751 40.7864C36.4293 40.9552 36.0534 41.0535 35.6693 41.0757C35.2852 41.0979 34.9005 41.0434 34.5376 40.9156L33.8483 40.6824L41.1778 19.2525C41.4335 18.5119 41.5397 17.7279 41.4902 16.9459C41.4406 16.164 41.2364 15.3996 40.8893 14.6972C40.5465 13.9926 40.0672 13.3632 39.4793 12.8452C38.8914 12.3273 38.2065 11.9312 37.4644 11.6799L19.9844 5.70056L20.2208 5.00786C20.4708 4.26485 20.9974 3.66608 21.7002 3.32225C22.0483 3.15077 22.4271 3.05043 22.8144 3.0271C23.2018 3.00377 23.5899 3.05793 23.956 3.1864L44.9834 10.3616C45.3506 10.487 45.6894 10.6838 45.9804 10.9406C46.2714 11.1974 46.5088 11.5091 46.679 11.8579C46.8491 12.2067 46.9488 12.5856 46.9721 12.973C46.9954 13.3603 46.942 13.7485 46.8149 14.1152Z" fill="#D9D9D9"/>
<path d="M27.812 20.9012C26.4099 19.853 24.6018 19.5611 22.8592 20.0425C21.7774 18.5934 20.1706 17.7195 18.4212 17.6893H18.3256C16.1469 17.6893 14.2131 18.9909 13.1363 21.1863C11.2612 25.0188 13.6412 29.6362 16.8296 32.5143C17.2567 32.8969 17.7564 33.1896 18.2989 33.3752C18.8415 33.5608 19.4158 33.6353 19.9878 33.5944C24.2731 33.2758 28.981 31.082 29.8465 26.9006C30.3463 24.472 29.5848 22.2296 27.812 20.9012ZM26.8879 26.2885C26.3461 28.915 22.8139 30.3557 19.763 30.5838C19.4298 30.6033 19.1022 30.4913 18.8506 30.2719C16.5796 28.2223 14.671 24.9198 15.8484 22.5147C16.417 21.349 17.3025 20.653 18.3676 20.7083C19.4108 20.7268 20.335 21.4094 20.8398 22.5365C20.9246 22.7253 21.0473 22.8945 21.2003 23.0339C21.3532 23.1732 21.5332 23.2796 21.7291 23.3464C21.9249 23.4133 22.1323 23.4392 22.3386 23.4225C22.5448 23.4058 22.7454 23.3468 22.9279 23.2493C24.0165 22.6673 25.1654 22.6958 26.004 23.3198C26.8275 23.937 27.1512 25.0188 26.8879 26.2885Z" fill="#D9D9D9"/>
</g>
</svg>
