<svg width="146" height="48" viewBox="0 0 146 48" fill="none" xmlns="http://www.w3.org/2000/svg">
<path fill-rule="evenodd" clip-rule="evenodd" d="M22.3653 12.9431L21.6405 15.7912L18.8919 12.9431H8.59886L3.31569 16.8834L3.17045 17.5231C3.11413 17.7712 3.06235 17.9985 3.01469 18.2074L2.98217 18.3498L1.01123 19.3227L0.671448 21.2685L2.13229 22.2415C2.02759 22.7843 1.87416 23.5744 1.63748 24.7756L1.46493 25.6515L4.13235 28.6035H1.11764L0 33.6263L0.465028 35.4269L3.61583 38.9112H13.9699L18.0199 35.8924L17.858 37.1258L18.4731 37.6669L18.2351 38.9112H25.1769C26.5734 38.9112 27.779 37.9303 28.0666 36.56L28.9938 32.1434H34.6932L36.5776 30.1258L36.1775 32.2975L37.6164 33.8115L37.4914 34.411L41.208 38.9112H52.0976L55.3157 36.3331L55.8354 38.9213L64.964 38.8718L65.7877 34.9608L66.355 36.7024C66.7836 38.0175 68.0069 38.9073 69.3868 38.9073H72.4712V38.9112H97.9025L98.6528 37.8483L99.1527 38.9112H108.882L108.711 14.1625L107.389 12.9431H77.5471L77.0976 15.0615L75.918 12.9431H59.3486L58.7675 15.888L56.9028 12.9431H46.5566L41.0712 17.2137L38.2272 12.9431H22.3653ZM77.0984 26.7081L77.9147 22.8796L79.1581 21.6981H80.9705L80.667 23.1627L78.7513 24.0091L78.5903 24.7946L79.9118 26.7095C79.3219 29.4798 78.6996 32.2444 78.1336 35.0195H76.1392C75.3885 33.0778 74.7269 31.0982 74.0251 29.1382L77.0984 26.7081ZM92.3073 22.8658L91.7977 25.5891L92.7368 26.7105C91.5375 29.47 90.35 32.2383 89.1881 35.0195H87.41L90.1428 22.1158H91.5815L92.3073 22.8658Z" fill="white"/>
<path fill-rule="evenodd" clip-rule="evenodd" d="M132.108 19.3027L129.835 20.1905L129.47 21.8677L130.398 23.1944C128.588 27.3229 125.908 31.6786 125.305 33.0917H124.125L123.541 37.8727L124.557 38.9138L134.08 38.9355L134.768 37.8727L135.131 38.9355H143.749L144.988 37.6285L144.826 14.1699L143.669 12.9651L132.809 12.9431L132.279 16.1481L133.194 16.8348C132.833 17.6575 132.108 19.3027 132.108 19.3027Z" fill="white"/>
<path fill-rule="evenodd" clip-rule="evenodd" d="M23.3903 15.0581L23.4493 14.7199H37.2498L39.7664 18.7248L38.2751 25.71L33.9255 30.3667H27.5564L26.3332 36.1941C26.2181 36.7422 25.7359 37.1346 25.1773 37.1346H19.3143L19.3749 36.7963C20.2609 36.7963 20.5239 36.6876 20.7466 35.6119H20.7488C21.4227 32.4436 22.0905 29.274 22.7758 26.1081L22.7766 26.1044L22.7778 26.0987C22.9507 25.2909 22.1767 24.9278 21.2941 24.9278L21.3532 24.5896H24.844L24.9031 24.2514C24.0445 24.2514 23.3074 23.9347 23.4137 23.1441C23.9064 20.8431 24.3887 18.5398 24.8828 16.239L24.8719 16.2384C25.0527 15.424 24.2762 15.0581 23.3903 15.0581ZM32.8194 20.1387L33.523 21.1038L32.9416 23.8683L32.2272 24.5924H28.7991L29.7194 20.1387H32.8194Z" fill="#06164E"/>
<path fill-rule="evenodd" clip-rule="evenodd" d="M131.403 21.417L131.462 21.0787H133.058L133.057 21.0807H134.947L135.006 20.7424C134.12 20.7424 133.62 20.357 133.941 19.558H133.933C133.983 19.446 134.031 19.3342 134.081 19.2223V19.222V19.2217L134.089 19.2045C134.743 17.7177 135.398 16.231 136.05 14.7435H143.059L143.214 37.1581H136.571L136.689 34.1778H134.111L133.137 37.1581H127.432V37.1606H125.542L125.603 36.8224C126.47 36.8224 126.531 36.6786 126.946 35.7041L126.975 35.638H126.976C128.84 31.1788 130.772 26.7483 132.716 22.3234C132.806 21.7378 132.174 21.417 131.403 21.417ZM135.078 30.3602L137.9 22.4117L137.491 30.3602H135.078Z" fill="#06164E"/>
<path fill-rule="evenodd" clip-rule="evenodd" d="M56.74 37.1346L56.8006 36.7963C57.6758 36.7963 57.9431 36.6902 58.1642 35.6506L58.164 35.6461C58.8386 32.4649 59.52 29.285 60.213 26.1077L60.21 26.1174C60.3761 25.2702 59.6194 24.933 58.7334 24.933L58.7925 24.5948L62.2774 24.5967L62.3364 24.2585C61.4662 24.2585 60.7207 23.933 60.852 23.1185C61.1355 21.7596 61.5258 19.8536 62.2025 16.5206L62.2621 16.2385L62.2601 16.2384C62.441 15.4241 61.6645 15.0582 60.7785 15.0582L60.8376 14.7199H74.8786L77.0222 18.5696L75.4999 25.71L71.927 28.535L74.4685 35.6119C74.9161 36.7963 75.2719 36.7963 75.7954 36.7963L75.7165 37.1346H74.2436V37.1307H69.3872C68.774 37.1307 68.2302 36.7353 68.0398 36.1507L66.024 29.9632H65.0298L63.5259 37.1035L56.74 37.1346ZM70.7798 21.1245L70.0625 20.1326H67.0286L66.097 24.5636H69.1556L70.2686 23.5386L70.7798 21.1245Z" fill="#06164E"/>
<path d="M78.3956 37.1346L78.4561 36.7963C79.2692 36.7963 79.5576 36.7047 79.7717 35.8581C80.4307 32.6054 81.1403 29.3613 81.8415 26.1174C82.0076 25.2702 81.2509 24.933 80.3649 24.933L80.424 24.5948L83.9089 24.5967L83.9679 24.2585C83.1231 24.2585 82.3958 23.9517 82.4741 23.1886C82.6447 22.3907 82.8426 21.4662 83.0843 20.3391L79.5383 20.3353C78.6071 20.3354 78.283 20.3448 78.0822 21.103H77.6375L77.8046 20.2832L77.8015 20.2831L78.9817 14.7199H95.1988L94.0391 20.3391H94.0362L93.8946 21.0892H93.5464C93.6402 20.5193 93.3646 20.3721 92.8583 20.3391H88.7077L85.5386 35.3029L85.4231 35.858C85.3654 36.7015 86.0719 36.7963 86.5521 36.7963L86.4731 37.1346H78.3956Z" fill="#06164E"/>
<path fill-rule="evenodd" clip-rule="evenodd" d="M98.1074 15.0581L98.1664 14.7199H106.942L107.098 37.1346H100.573V34.1543H97.9948L97.0214 37.1346H89.4354L89.4959 36.7964C90.2438 36.7964 90.392 36.6893 90.6854 36.0339C92.1117 32.6126 93.5788 29.2084 95.062 25.8112C95.126 25.2441 94.5033 24.9339 93.7449 24.9339L93.8039 24.5957H95.3994L95.3987 24.5976H97.2888L97.3478 24.2594C96.4619 24.2594 95.962 23.874 96.2822 23.0749H96.2601C96.8277 21.7821 97.3964 20.4899 97.9653 19.1977L97.968 19.1916C98.4264 18.1503 98.8848 17.1091 99.3427 16.0675C99.5542 15.4166 98.9229 15.0581 98.1074 15.0581ZM101.785 22.3882L98.9613 30.3817H101.385L101.785 22.3882Z" fill="#06164E"/>
<path d="M2.66961 20.1266H6.16028L6.21934 19.7884C4.77736 19.7884 4.65689 18.9795 4.89798 17.9176L9.18544 14.7199H18.1332L20.9383 17.6692L20.2247 21.1153H14.673L14.9332 20.1218H9.80681L9.09224 23.5368H16.2691L19.1895 26.7344L17.6361 33.9369L13.3797 37.1346H4.40089L2.07075 34.5578L1.8222 33.5955L2.53762 30.3803H7.90782L7.63202 31.7327H12.0748L12.7969 31.1739L13.2319 29.125L12.7272 28.3177H6.265L3.37562 25.1201C3.62237 23.8678 3.85056 22.6111 4.10805 21.3609C4.0661 20.7246 3.38809 20.4649 2.61054 20.4649L2.66961 20.1266Z" fill="#06164E"/>
<path fill-rule="evenodd" clip-rule="evenodd" d="M47.137 14.7199L42.7873 17.9176C42.7087 18.2717 42.6321 18.6174 42.5575 18.9551H42.5608C42.3948 19.8023 43.1514 20.1395 44.0374 20.1395L43.9783 20.4778L40.4934 20.4758L40.4344 20.8141C41.2478 20.8141 41.9522 21.0983 41.9337 21.8005C41.1289 25.502 40.5978 28.0789 40.1659 30.1979C40.0172 31.0289 40.7684 31.3604 41.6466 31.3604L41.5875 31.6986L38.1027 31.6967L38.0437 32.0349C38.9096 32.0349 39.6819 32.357 39.5613 33.1628C39.5077 33.4226 39.4545 33.68 39.4009 33.9369L42.0417 37.1346H51.4866L55.5565 33.9369L58.6633 18.9974L55.8983 14.7199H47.137ZM49.5317 31.6396L46.4601 31.6978L45.8085 30.3666L47.7571 21.1041L48.7922 20.1272H51.8594L52.5188 21.1041L50.6007 30.3666L49.5317 31.6396Z" fill="#06164E"/>
<path d="M133.81 28.798L95.7382 47.9855L114.771 28.798L105.255 19.202L143.322 0.0144901L124.29 19.202L133.81 28.798Z" fill="#00FF73"/>
<path d="M110.94 18.0382L137.769 12.4538L123.704 20.651L123.022 21.0484L123.414 21.733L128.123 29.9665L101.297 35.5664L115.358 27.3518L116.038 26.9543L115.647 26.2704L110.94 18.0382Z" fill="#06164E" stroke="white" stroke-width="1.3241"/>
</svg>
