<svg width="48" height="50" viewBox="0 0 48 50" fill="none" xmlns="http://www.w3.org/2000/svg">
<path d="M47.9179 8.25169C47.8982 7.60893 47.3743 7.09802 46.7348 7.09802H38.9143V1.19048C38.9143 0.533036 38.3844 0 37.7306 0H10.2694C9.61558 0 9.08567 0.533036 9.08567 1.19048V7.09802H1.26522C0.625713 7.09802 0.101818 7.60883 0.0820895 8.25169C-0.0603516 12.8882 -0.195098 17.2677 1.31355 20.5161C2.84065 23.8045 5.87532 25.7974 11.1133 26.9348C13.0662 30.7229 16.3108 33.7667 20.3204 35.4248V36.0163C20.3204 40.3135 17.1157 43.8921 12.8657 44.3401C12.7009 44.3575 12.5349 44.3735 12.3678 44.3879C11.7556 44.4409 11.2855 44.9562 11.2855 45.574V48.8095C11.2855 49.467 11.8154 50 12.4692 50H35.5308C36.1846 50 36.7145 49.467 36.7145 48.8095V45.5741C36.7145 44.9562 36.2444 44.441 35.6322 44.388C35.4651 44.3735 35.2991 44.3575 35.1338 44.3402C30.8843 43.8921 27.6797 40.3136 27.6797 36.0164V35.4249C31.6891 33.7668 34.9338 30.7229 36.8867 26.9349C42.1247 25.7976 45.1594 23.8048 46.6865 20.5162C48.195 17.2677 48.0604 12.8882 47.9179 8.25169ZM2.4151 9.47897H9.08567V18.5712C9.08567 20.5264 9.39738 22.4211 9.97563 24.2034C2.677 22.1455 2.18892 18.0852 2.4151 9.47897ZM34.3471 46.6374V47.619H13.6529V46.6374C18.776 45.8358 22.5913 41.463 22.6854 36.2148C23.0444 36.3077 23.4078 36.3908 23.7758 36.4621C23.8498 36.4765 23.9249 36.4836 23.9999 36.4836C24.0748 36.4836 24.1499 36.4765 24.2239 36.4621C24.5919 36.3908 24.9553 36.3076 25.3143 36.2148C25.4085 41.4634 29.2237 45.8363 34.3471 46.6374ZM24 34.0792C16.7159 32.5571 11.4531 26.072 11.4531 18.5713V2.38095H36.5469V18.5712C36.5468 26.072 31.284 32.5571 24 34.0792ZM38.0243 24.2035C38.6025 22.4211 38.9142 20.5264 38.9142 18.5713V9.47907H45.5848C45.811 18.0853 45.3229 22.1456 38.0243 24.2035ZM30.7604 12.263L27.104 12.1473L25.8647 8.68591C25.5783 7.88512 24.8463 7.36766 24.0001 7.36766C23.154 7.36766 22.4222 7.88502 22.1355 8.68562L20.8962 12.1473L17.2396 12.263C16.3941 12.2898 15.6787 12.83 15.4171 13.6391C15.1557 14.4483 15.4187 15.3082 16.0872 15.83L18.9778 18.085L17.9573 21.6182C17.7212 22.4352 18.0109 23.2864 18.6955 23.7867C19.0467 24.0432 19.4529 24.1718 19.8598 24.1718C20.2463 24.1718 20.6335 24.0557 20.9744 23.8226L24 21.7549L27.0256 23.8228C27.7256 24.3011 28.6199 24.2869 29.3047 23.7868C29.9892 23.2866 30.2789 22.4354 30.0429 21.6184L29.0223 18.0852L31.913 15.8301C32.5812 15.3085 32.8443 14.4487 32.583 13.6392C32.3214 12.8299 31.6061 12.2898 30.7604 12.263ZM23.6371 9.49236L23.6376 9.49395C23.6374 9.49325 23.6372 9.49266 23.6371 9.49206L23.6371 9.49236ZM27.1031 16.5691C26.6152 16.9499 26.4113 17.5813 26.5836 18.1776L27.4705 21.2482L24.8408 19.4509C24.5853 19.2764 24.2926 19.1891 24 19.1891C23.7073 19.1891 23.4144 19.2764 23.159 19.451L20.5294 21.2482L21.4163 18.1778C21.5886 17.5812 21.3848 16.9498 20.8966 16.5689L18.3844 14.6089L21.5626 14.5084C22.1797 14.4888 22.7136 14.0985 22.923 13.5143L24 10.5057L25.0768 13.5135C25.2858 14.0982 25.8198 14.4887 26.4377 14.5083L29.6155 14.6088L27.1031 16.5691Z" fill="#D9D9D9"/>
</svg>
