<svg width="50" height="50" viewBox="0 0 50 50" fill="none" xmlns="http://www.w3.org/2000/svg">
<path d="M23.8485 26.1348C24.1647 26.451 24.578 26.6088 24.9921 26.6088C25.4062 26.6088 25.8203 26.451 26.1366 26.1348C26.7682 25.5032 26.7682 24.4784 26.1366 23.8476L24.9913 22.704L26.7068 20.9877L27.8512 22.1322C28.1666 22.4484 28.5807 22.6061 28.9948 22.6061C29.4089 22.6061 29.823 22.4484 30.1385 22.1322C30.7701 21.5005 30.7701 20.4766 30.1385 19.8449L28.994 18.7005C29.6257 18.0688 29.6257 17.0449 28.994 16.4133C28.3624 15.7816 27.3376 15.7816 26.7068 16.4133L25.5631 15.2696C24.9323 14.638 23.9067 14.638 23.2759 15.2696C22.6442 15.9013 22.6442 16.9252 23.2759 17.5569L24.4195 18.7005L22.7041 20.4167L21.5604 19.2731C20.9288 18.6415 19.9048 18.6415 19.2724 19.2731C18.6407 19.9048 18.6407 20.9295 19.2724 21.5603L20.4168 22.704L18.7014 24.4202L17.5569 23.2758C16.9261 22.6441 15.9005 22.6441 15.2696 23.2758C14.638 23.9074 14.638 24.9313 15.2696 25.563L16.4141 26.7074C15.7824 27.3391 15.7824 28.363 16.4141 28.9947C16.7303 29.3109 17.1436 29.4686 17.5577 29.4686C17.9718 29.4686 18.3859 29.3109 18.7014 28.9947L19.845 30.1383C20.1604 30.4545 20.5745 30.6122 20.9886 30.6122C21.4027 30.6122 21.8168 30.4545 22.1322 30.1383C22.7639 29.5066 22.7639 28.4827 22.1322 27.851L20.9886 26.7074L22.7041 24.9912L23.8485 26.1348Z" fill="#D9D9D9"/>
<path d="M46.8187 45.5545C48.7936 43.2869 50 40.334 50 37.098C50 33.8951 48.8202 30.968 46.8808 28.7102C46.813 28.6182 46.7372 28.5344 46.6534 28.4602C45.6526 27.3538 44.4712 26.416 43.1447 25.7088C44.1656 23.0567 44.8067 20.2771 45.0526 17.4242C45.0526 17.4226 45.0526 17.4209 45.0534 17.4193C45.0551 17.3992 45.0583 17.3798 45.0599 17.3605C45.3913 13.4197 44.968 9.49914 43.8003 5.70677C43.1608 3.62875 41.5391 2.00633 39.4618 1.36849C35.6676 0.200859 31.7468 -0.22168 27.8083 0.108933C27.7937 0.109739 27.78 0.112158 27.7663 0.113771C27.755 0.115384 27.7437 0.11619 27.7325 0.116997C20.6376 0.730646 13.9508 3.84728 8.89781 8.90001C3.67708 14.1188 0.540932 21.0351 0.0683728 28.3723C-0.184842 32.1735 0.265944 35.953 1.40944 39.6075C2.02796 41.5855 3.57789 43.1354 5.55603 43.7555C8.55267 44.6933 11.6348 45.165 14.7427 45.165C15.4241 45.165 16.1072 45.1432 16.7902 45.0973C19.8659 44.8981 22.8585 44.2417 25.7075 43.1458C26.2099 44.0877 26.8317 44.9529 27.5421 45.7375C27.5655 45.769 27.5946 45.794 27.6204 45.8238C29.9799 48.384 33.3491 50 37.0974 50C40.9278 50 44.3632 48.3131 46.7284 45.6537C46.7598 45.6214 46.7897 45.5899 46.8187 45.5545ZM42.7423 37.098C42.7423 34.9426 43.6793 32.9936 45.1889 31.8058C46.1881 33.3282 46.7743 35.145 46.7743 37.098C46.7743 39.0511 46.1881 40.8678 45.1889 42.3903C43.6793 41.2025 42.7423 39.2535 42.7423 37.098ZM38.5126 4.45044C39.5674 4.7738 40.3916 5.59872 40.7157 6.65345C41.6173 9.583 42.0205 12.5964 41.9254 15.6332C38.8586 15.4856 35.7603 14.0938 33.4161 11.7505C31.0718 9.4056 29.6775 6.30671 29.5324 3.24088C32.5669 3.14412 35.5821 3.54811 38.5126 4.45044ZM6.5197 40.6759C5.55038 40.3727 4.79074 39.6139 4.48753 38.6439C3.61983 35.8715 3.20291 33.0178 3.23194 30.1399C6.12213 30.4068 8.95668 31.7671 11.1767 33.9871C13.3976 36.2078 14.7467 39.039 15.0201 41.9314C12.1436 41.9589 9.29135 41.5436 6.5197 40.6759ZM18.2393 41.7137C17.9135 38.0488 16.2322 34.4797 13.4581 31.7058C10.6856 28.9335 7.11564 27.2555 3.45209 26.9273C4.20448 20.9908 6.90758 15.4494 11.1776 11.1788C15.2895 7.06712 20.611 4.39561 26.314 3.53521C26.5196 7.37112 28.2171 11.1127 31.1355 14.031C34.0515 16.9476 37.7909 18.6297 41.6254 18.8361C41.3326 20.8021 40.8198 22.7172 40.1069 24.5654C39.14 24.3324 38.1352 24.1961 37.0974 24.1961C33.4056 24.1961 30.0807 25.7629 27.7268 28.2562C27.6704 28.3102 27.6179 28.3674 27.5687 28.4295C25.4801 30.7229 24.1947 33.7597 24.1947 37.098C24.1947 38.1431 24.3334 39.1543 24.5689 40.1276C22.5335 40.9122 20.4134 41.4395 18.2393 41.7137ZM29.2759 42.7725C28.1139 41.1759 27.4204 39.2188 27.4204 37.098C27.4204 34.9773 28.1139 33.0202 29.2759 31.4236C31.0912 32.5299 32.2589 34.6765 32.2589 37.098C32.2589 39.5196 31.0912 41.6661 29.2759 42.7725ZM31.6299 45.0747C34.0007 43.3055 35.4845 40.3566 35.4845 37.098C35.4845 33.8395 34.0007 30.8906 31.6299 29.1214C33.187 28.0513 35.0692 27.4216 37.0974 27.4216C39.3118 27.4216 41.348 28.1771 42.981 29.4327C40.8294 31.2357 39.5166 34.0443 39.5166 37.098C39.5166 40.1518 40.8294 42.9604 42.981 44.7634C41.348 46.0189 39.3118 46.7745 37.0974 46.7745C35.0692 46.7745 33.187 46.1447 31.6299 45.0747Z" fill="#D9D9D9"/>
</svg>
